<svg xmlns="http://www.w3.org/2000/svg" viewBox="0 0 100 100" fill="none">

  <!-- Corner scan brackets -->
  <path d="M5 22 L5 5 L22 5"  stroke="#6a9ae7" stroke-width="5.5" stroke-linecap="round" stroke-linejoin="round"/>
  <path d="M78 5 L95 5 L95 22" stroke="#6a9ae7" stroke-width="5.5" stroke-linecap="round" stroke-linejoin="round"/>
  <path d="M5 78 L5 95 L22 95" stroke="#6a9ae7" stroke-width="5.5" stroke-linecap="round" stroke-linejoin="round"/>
  <path d="M95 78 L95 95 L78 95" stroke="#6a9ae7" stroke-width="5.5" stroke-linecap="round" stroke-linejoin="round"/>

  <!-- Hand outline — single continuous clockwise path
       Starts bottom-left of palm, traces up the left edge,
       goes over each finger tip, includes the thumb,
       then close along the palm base. -->
  <path d="
    M 19 77
    L 19 41
    Q 19 34 25 34
    Q 31 34 31 41
    L 31 63
    L 32 63
    L 32 32
    Q 32 25 38 25
    Q 44 25 44 32
    L 44 61
    L 45 61
    L 45 26
    Q 45 19 51 19
    Q 57 19 57 26
    L 57 61
    L 58 61
    L 58 32
    Q 58 25 64 25
    Q 70 25 70 32
    L 70 54
    Q 72 44 76 41
    Q 83 37 87 44
    Q 91 51 85 58
    Q 81 63 74 65
    L 74 77
    Q 74 85 63 85
    L 27 85
    Q 19 85 19 77
    Z
  " stroke="#6a9ae7" stroke-width="4" stroke-linecap="round" stroke-linejoin="round"/>

</svg>
